<svg width="14" height="27" viewBox="0 0 14 27" fill="none" xmlns="http://www.w3.org/2000/svg">
<g clip-path="url(#clip0)">
<path d="M10.354 0C11.054 0 11.763 0.0380002 12.463 0.0690002C12.92 0.0880002 13.377 0.152997 13.806 0.199997L13.773 4.42699H13.438C12.974 4.42699 12.51 4.421 12.046 4.421C11.698 4.421 11.346 4.421 11.002 4.436C9.88198 4.473 9.05798 4.893 9.00198 6.293C8.96698 7.301 8.941 9.526 8.94 9.643C8.998 9.643 10.105 9.643 11.219 9.643C11.776 9.643 12.319 9.643 12.7 9.643H13.6C13.373 11.267 13.165 12.825 12.939 14.392H8.939L8.84799 26.252H3.931L4.021 14.374H0L0.0359802 9.652H4.07599V9.298C4.08299 8.346 4.07599 7.39799 4.10699 6.44199C4.11159 5.83559 4.16307 5.23046 4.26099 4.632C4.3695 3.93104 4.61569 3.2585 4.98538 2.65316C5.35508 2.04782 5.84095 1.52165 6.41498 1.105C7.45613 0.383985 8.69357 1.95573e-05 9.95999 0.00499725C10.093 -2.74647e-06 10.224 0 10.354 0Z" fill="#932552"/>
</g>
<defs>
<clipPath id="clip0">
<rect width="13.806" height="26.252" fill="white"/>
</clipPath>
</defs>
</svg>
