<svg width="27" height="27" viewBox="0 0 27 27" fill="none" xmlns="http://www.w3.org/2000/svg">
<g clip-path="url(#clip0)">
<path d="M20.184 4.565H20.204C20.4105 4.56552 20.6148 4.60693 20.8051 4.68684C20.9955 4.76674 21.1681 4.88357 21.3131 5.03056C21.458 5.17756 21.5724 5.35181 21.6496 5.54327C21.7269 5.73472 21.7654 5.93957 21.763 6.146C21.7575 6.56493 21.5871 6.96479 21.2887 7.25887C20.9903 7.55296 20.588 7.71757 20.169 7.717C19.9628 7.71569 19.7589 7.67375 19.5689 7.59356C19.3789 7.51337 19.2066 7.39652 19.0618 7.24969C18.917 7.10285 18.8026 6.92891 18.7251 6.73782C18.6475 6.54672 18.6085 6.34221 18.61 6.136C18.6121 5.71948 18.7788 5.32066 19.0736 5.02641C19.3684 4.73216 19.7675 4.56632 20.184 4.565V4.565Z" fill="#932552"/>
<path d="M26.1 6.59C26.3 8.657 26.422 18.421 25.814 20.709C25.5163 22.0802 24.797 23.3238 23.7568 24.2654C22.7167 25.2071 21.4079 25.7997 20.014 25.96C17.607 26.1921 15.1889 26.2896 12.771 26.252C10.3312 26.3229 7.88966 26.1935 5.47101 25.865C4.10591 25.5861 2.86436 24.8817 1.92482 23.8528C0.985275 22.824 0.396114 21.5237 0.242003 20.139C-0.109997 17.925 -0.146997 7.634 0.492003 5.398C0.809613 4.0647 1.52849 2.86089 2.55166 1.94893C3.57484 1.03698 4.8531 0.460759 6.214 0.298C8.39872 0.0583619 10.5966 -0.0401739 12.794 0.00300142C15.245 0.00300142 17.717 0.0689964 19.206 0.150996C20.991 0.190337 22.6983 0.888868 23.999 2.112C25.2279 3.29429 25.9762 4.88922 26.1 6.59V6.59ZM23.575 19.707C23.9237 15.4158 23.9778 11.1057 23.737 6.807C23.6881 5.75495 23.265 4.75498 22.5438 3.98743C21.8226 3.21988 20.851 2.73527 19.804 2.621C17.6218 2.41986 15.4302 2.33741 13.239 2.374C10.624 2.374 8.023 2.444 6.877 2.569C5.82465 2.63172 4.82773 3.06192 4.06015 3.78454C3.29256 4.50717 2.80304 5.47634 2.677 6.523C2.31921 10.9327 2.28913 15.3629 2.587 19.777C2.67559 20.6552 3.03501 21.4841 3.61549 22.1489C4.19598 22.8138 4.96881 23.2818 5.82699 23.488C8.16523 23.8225 10.5282 23.9523 12.889 23.876C15.644 23.876 18.348 23.789 19.365 23.676C20.4226 23.6171 21.4252 23.1856 22.1949 22.458C22.9647 21.7304 23.4518 20.7536 23.57 19.701" fill="#932552"/>
<path d="M13.188 6.4C14.0701 6.39956 14.9435 6.574 15.7577 6.91323C16.5719 7.25246 17.3108 7.74975 17.9316 8.37634C18.5524 9.00292 19.0429 9.74637 19.3745 10.5637C19.7062 11.381 19.8726 12.256 19.864 13.138C19.8448 14.9269 19.1214 16.6361 17.8506 17.8953C16.5798 19.1545 14.864 19.8622 13.075 19.865C12.1927 19.8662 11.319 19.6923 10.5044 19.3534C9.68979 19.0145 8.95058 18.5172 8.3296 17.8904C7.70862 17.2637 7.21821 16.5199 6.88681 15.7022C6.5554 14.8846 6.3896 14.0092 6.399 13.127C6.41404 11.3368 7.1361 9.62512 8.4078 8.36503C9.6795 7.10494 11.3977 6.39861 13.188 6.4V6.4ZM13.088 17.482C14.2383 17.4799 15.342 17.0274 16.1628 16.2214C16.9835 15.4154 17.456 14.3201 17.479 13.17C17.4909 12.5991 17.3893 12.0315 17.18 11.5002C16.9707 10.9688 16.6579 10.4844 16.2598 10.075C15.8616 9.66566 15.3861 9.33948 14.8609 9.11544C14.3356 8.89141 13.771 8.77398 13.2 8.77H13.161C12.0105 8.77213 10.9066 9.22478 10.0859 10.031C9.26511 10.8372 8.79275 11.9327 8.77 13.083C8.75901 13.6537 8.86129 14.2209 9.07093 14.7518C9.28058 15.2827 9.59342 15.7667 9.99136 16.1759C10.3893 16.5851 10.8644 16.9113 11.3893 17.1357C11.9141 17.36 12.4782 17.4781 13.049 17.483H13.088" fill="#932552"/>
</g>
<defs>
<clipPath id="clip0">
<rect width="26.265" height="26.252" fill="white"/>
</clipPath>
</defs>
</svg>
