<svg width="27" height="27" viewBox="0 0 27 27" fill="none" xmlns="http://www.w3.org/2000/svg">
<g clip-path="url(#clip0)">
<path d="M3.23897 8.05567e-06C3.66027 -0.000939748 4.07756 0.081758 4.46665 0.243302C4.85574 0.404846 5.20889 0.642026 5.50562 0.941086C5.80236 1.24015 6.03677 1.59513 6.19527 1.98547C6.35377 2.37581 6.43321 2.79374 6.42898 3.21501C6.4216 4.06946 6.07718 4.88645 5.47063 5.48831C4.86409 6.09018 4.04446 6.42825 3.18998 6.42901C2.769 6.42915 2.35215 6.34595 1.96349 6.18418C1.57483 6.02242 1.22204 5.7853 0.925483 5.4865C0.628921 5.18771 0.394449 4.83316 0.235602 4.4433C0.0767555 4.05344 -0.00332435 3.63598 -2.40625e-05 3.21501C0.00890999 2.36096 0.353785 1.54477 0.959967 0.943078C1.56615 0.341387 2.38488 0.00259014 3.23897 8.05567e-06V8.05567e-06Z" fill="#932552"/>
<path d="M5.95197 8.858L5.81596 26.702H0.266968L0.402969 8.858H5.95197Z" fill="#932552"/>
<path d="M20.069 8.42401C25.688 8.42401 26.693 12.108 26.656 16.918L26.581 26.702H21.044L21.11 18.032C21.126 15.956 21.099 13.292 18.26 13.292C15.374 13.292 14.923 15.545 14.905 17.88L14.838 26.702H9.28796L9.42397 8.85801H14.739L14.72 11.298H14.803C15.3418 10.3903 16.1152 9.64445 17.0418 9.13875C17.9684 8.63305 19.014 8.38616 20.069 8.42401V8.42401Z" fill="#932552"/>
</g>
<defs>
<clipPath id="clip0">
<rect width="26.657" height="26.702" fill="white"/>
</clipPath>
</defs>
</svg>
